<?xml version="1.0" standalone="no"?>
<!DOCTYPE svg PUBLIC "-//W3C//DTD SVG 20010904//EN"
 "http://www.w3.org/TR/2001/REC-SVG-20010904/DTD/svg10.dtd">
<svg version="1.0" xmlns="http://www.w3.org/2000/svg"
 width="490.000000pt" height="490.000000pt" viewBox="0 0 490.000000 490.000000"
 preserveAspectRatio="xMidYMid meet">
<metadata>
Created by potrace 1.11, written by Peter Selinger 2001-2013
</metadata>
<g transform="translate(0.000000,490.000000) scale(0.100000,-0.100000)"
fill="#000000" stroke="none">
<path d="M2393 4658 c-62 -23 -125 -83 -176 -169 -76 -129 -154 -374 -182
-576 -3 -21 -8 -49 -10 -63 -2 -14 -7 -52 -10 -85 -3 -33 -8 -71 -10 -85 -21
-117 -21 -530 -1 -695 14 -110 17 -177 8 -171 -6 3 -23 1 -39 -5 -15 -6 -37
-13 -48 -15 -11 -2 -21 -8 -23 -14 -2 -6 -7 -8 -12 -5 -4 3 -13 -2 -20 -10 -7
-8 -17 -15 -22 -15 -21 0 -111 -104 -133 -154 -32 -70 -55 -189 -55 -285 0
-75 34 -342 48 -382 12 -33 28 -6 62 101 53 172 105 264 188 332 11 9 23 14
26 11 3 -4 6 -1 6 6 0 7 5 9 10 6 6 -3 10 -2 10 3 0 10 6 11 68 15 29 2 42 -1
42 -10 0 -22 61 -167 91 -217 28 -44 29 -51 18 -80 -14 -35 -87 -147 -262
-403 -64 -95 -117 -175 -117 -178 0 -4 14 -4 31 0 17 4 37 8 43 9 6 1 17 5 24
9 6 5 12 6 12 3 0 -3 21 4 46 14 25 11 49 20 54 20 5 0 -5 -37 -22 -82 -17
-46 -57 -159 -89 -252 -32 -93 -61 -171 -64 -174 -3 -3 -5 -14 -5 -25 0 -19 1
-19 18 -4 10 10 24 17 31 17 14 0 111 71 111 82 0 4 5 8 11 8 6 0 37 20 69 45
54 41 89 58 76 36 -3 -5 -8 -44 -11 -88 -2 -43 -7 -91 -10 -108 -7 -35 -9 -37
69 80 70 103 64 108 91 -78 9 -59 18 -118 21 -130 2 -12 11 -72 19 -134 9 -62
18 -121 20 -131 2 -11 6 -41 10 -68 3 -27 8 -58 10 -69 8 -44 19 -141 17 -148
-1 -5 2 -6 8 -2 6 4 10 -6 10 -24 0 -17 4 -31 8 -31 5 0 16 78 26 172 9 95 31
295 48 443 16 149 30 278 30 288 -1 28 20 15 58 -36 19 -25 36 -45 37 -43 2 2
5 25 7 52 2 27 4 55 5 63 1 10 4 11 14 2 8 -6 17 -8 20 -4 4 3 7 2 7 -4 0 -6
37 -39 83 -74 45 -35 103 -83 128 -107 l47 -43 -60 188 c-81 255 -120 403
-105 403 7 0 31 -9 54 -19 22 -11 56 -18 75 -17 18 2 43 -1 55 -5 26 -10 9 19
-191 324 -64 98 -124 193 -133 212 -17 35 -17 35 24 113 22 42 50 105 63 140
12 34 25 63 29 63 27 6 61 3 61 -5 0 -5 3 -6 6 -3 17 16 164 -94 164 -122 0
-5 3 -11 8 -13 16 -7 72 -138 97 -228 15 -52 30 -100 34 -107 17 -32 33 14 52
148 34 236 18 438 -42 546 -25 45 -80 113 -88 110 -4 -1 -20 10 -36 25 -16 15
-32 25 -37 22 -4 -3 -8 -1 -8 4 0 5 -6 9 -12 10 -23 2 -119 38 -115 42 6 6 15
98 24 230 13 187 6 567 -11 670 -3 14 -7 51 -11 82 -3 31 -11 83 -16 115 -6
32 -12 65 -13 73 -2 12 -12 55 -31 140 -1 3 -9 32 -20 65 -10 33 -19 65 -21
70 -7 32 -63 159 -93 210 -48 82 -125 158 -182 177 -42 14 -49 14 -96 -4z"/>
</g>
</svg>
